<?xml version="1.0" encoding="iso-8859-1"?>
<!-- Generator: Adobe Illustrator 16.0.0, SVG Export Plug-In . SVG Version: 6.00 Build 0)  -->
<!DOCTYPE svg PUBLIC "-//W3C//DTD SVG 1.1//EN" "http://www.w3.org/Graphics/SVG/1.1/DTD/svg11.dtd">
<svg version="1.1" id="Capa_1" xmlns="http://www.w3.org/2000/svg" xmlns:xlink="http://www.w3.org/1999/xlink" x="0px" y="0px"
	 width="91.807px" height="91.808px" viewBox="0 0 91.807 91.808" style="enable-background:new 0 0 91.807 91.808;"
	 xml:space="preserve">
<g>
	<path d="M62.917,48.634c0.34-0.448,0.864-0.892,1.569-1.326c2.188-1.353,2.377-2.582,2.152-3.375
		c-0.357-1.258-1.986-2.009-4.355-2.009c-1.547,0-3.174,0.311-4.787,0.861c1.928-1.53,3.55-3.423,4.763-5.583
		c1.194,1.332,2.981,2.179,4.979,2.179c3.601,0,6.518-2.746,6.518-6.133v-9.966c0-3.157-2.535-5.755-5.795-6.094
		C65.918,7.4,56.873,0,46.05,0C35.119,0,26.003,7.553,24.085,17.489c-2.553,0.831-4.39,3.107-4.39,5.792v9.966
		c0,3.388,2.918,6.133,6.518,6.133c1.357,0,2.617-0.391,3.661-1.059c1.157,1.763,2.603,3.312,4.265,4.6
		c-1.74-0.64-3.508-0.998-5.182-0.998c-2.371,0-3.999,0.751-4.355,2.009c-0.225,0.793-0.034,2.023,2.154,3.375
		c0.822,0.508,1.4,1.026,1.726,1.545c-7.177,3.832-11.769,11.408-11.769,19.533v17.236l0.141,0.949l1.712,0.535
		c9.987,3.121,19.803,4.702,29.172,4.702c15.6,0,24.66-4.339,25.646-4.835l0.915-0.466l0.795,0.013V68.385
		C75.093,60.047,70.344,52.395,62.917,48.634z M46.05,2.175c9.603,0,17.644,6.511,19.583,15.168
		c-1.227,0.292-2.301,0.925-3.141,1.768c-3.176-6.019-9.488-10.126-16.768-10.126c-6.836,0-12.809,3.63-16.144,9.057
		c-0.904-0.514-1.949-0.831-3.07-0.878C28.522,8.596,36.517,2.175,46.05,2.175z M32.732,27.504v-4.222
		c0-0.625-0.1-1.227-0.285-1.794c0.93-1.459,2.559-2.431,4.417-2.431h3.561c0.165,0,0.321,0.034,0.482,0.049
		c0.021-0.001,0.04-0.013,0.061-0.013h10.417c0.121-0.008,0.237-0.036,0.359-0.036h3.562c2.893,0,5.236,2.345,5.236,5.237
		c0,2.893-2.346,5.238-5.236,5.238h-3.562c-2.891,0-5.236-2.345-5.236-5.238c0-0.835,0.214-1.615,0.562-2.316h-1.969
		c0.349,0.701,0.563,1.48,0.563,2.316c0,2.893-2.346,5.238-5.238,5.238h-3.561C35.183,29.532,33.69,28.736,32.732,27.504z
		 M51.85,45.867c-0.16,0.125-0.326,0.242-0.484,0.373h-0.754C51.03,46.128,51.444,46.008,51.85,45.867z M40.841,46.24h-0.966
		c-0.219-0.183-0.45-0.348-0.675-0.52C39.736,45.918,40.282,46.091,40.841,46.24z M61.096,48.224
		c-2.79,1.274-13.956,8.478-14.158,41.8c-0.737-0.007-1.476-0.02-2.219-0.047C44.487,53.65,31.215,48.4,30.023,48.005
		c-0.473-0.789-1.25-1.526-2.338-2.199c-1.255-0.774-1.41-1.293-1.383-1.39c0.054-0.192,0.786-0.723,2.655-0.723
		c1.235,0,5.606,0.296,10.016,4.101l0.249,0.214h12.796l0.249-0.214c4.41-3.805,8.781-4.101,10.017-4.101
		c1.869,0,2.601,0.531,2.654,0.724c0.027,0.096-0.127,0.614-1.381,1.389C62.354,46.549,61.546,47.345,61.096,48.224z"/>
</g>
<g>
</g>
<g>
</g>
<g>
</g>
<g>
</g>
<g>
</g>
<g>
</g>
<g>
</g>
<g>
</g>
<g>
</g>
<g>
</g>
<g>
</g>
<g>
</g>
<g>
</g>
<g>
</g>
<g>
</g>
</svg>
